<?xml version="1.0" encoding="UTF-8" standalone="no"?>
<!-- Created with Inkscape (http://www.inkscape.org/) -->

<svg
   xmlns:dc="http://purl.org/dc/elements/1.1/"
   xmlns:cc="http://creativecommons.org/ns#"
   xmlns:rdf="http://www.w3.org/1999/02/22-rdf-syntax-ns#"
   xmlns:svg="http://www.w3.org/2000/svg"
   xmlns="http://www.w3.org/2000/svg"
   xmlns:sodipodi="http://sodipodi.sourceforge.net/DTD/sodipodi-0.dtd"
   xmlns:inkscape="http://www.inkscape.org/namespaces/inkscape"
   version="1.1"
   id="svg815"
   xml:space="preserve"
   width="793.33331"
   height="793.33331"
   viewBox="0 0 793.33331 793.33331"
   sodipodi:docname="Malaysia-flag-brush-stroke.svg"
   inkscape:version="0.92.4 (5da689c313, 2019-01-14)"><metadata
     id="metadata821"><rdf:RDF><cc:Work
         rdf:about=""><dc:format>image/svg+xml</dc:format><dc:type
           rdf:resource="http://purl.org/dc/dcmitype/StillImage" /><dc:title></dc:title></cc:Work></rdf:RDF></metadata><defs
     id="defs819"><clipPath
       clipPathUnits="userSpaceOnUse"
       id="clipPath831"><path
         d="M 0,595 H 595 V 0 H 0 Z"
         id="path829"
         inkscape:connector-curvature="0" /></clipPath></defs><sodipodi:namedview
     pagecolor="#ffffff"
     bordercolor="#666666"
     borderopacity="1"
     objecttolerance="10"
     gridtolerance="10"
     guidetolerance="10"
     inkscape:pageopacity="0"
     inkscape:pageshadow="2"
     inkscape:window-width="1920"
     inkscape:window-height="1018"
     id="namedview817"
     showgrid="false"
     inkscape:zoom="1.0701681"
     inkscape:cx="396.66666"
     inkscape:cy="396.66666"
     inkscape:window-x="-8"
     inkscape:window-y="-8"
     inkscape:window-maximized="1"
     inkscape:current-layer="g823" /><g
     id="g823"
     inkscape:groupmode="layer"
     inkscape:label="Malaysia-flag-vector-paint"
     transform="matrix(1.3333333,0,0,-1.3333333,0,793.33333)"><g
       id="g825"><g
         id="g827"
         clip-path="url(#clipPath831)"><path
           d="m 521.746,223.566 c -0.299,0.092 -0.545,0.192 -0.767,0.292 h -1.376 c 0.764,-0.304 1.49,-0.438 2.143,-0.292"
           style="fill:#ffffff;fill-opacity:1;fill-rule:nonzero;stroke:none"
           id="path833"
           inkscape:connector-curvature="0" /><path
           d="m 514.053,223.858 h -1.633 c 0.492,-0.131 1.025,-0.153 1.633,0"
           style="fill:#ffffff;fill-opacity:1;fill-rule:nonzero;stroke:none"
           id="path835"
           inkscape:connector-curvature="0" /><path
           d="m 399.392,303.832 h 110.139 c 0.215,1.046 0.44,1.808 0.557,1.943 0.506,0.591 2.957,-0.517 2.692,0.891 -1.544,-0.052 -2.304,0.695 -2.692,1.792 3.408,3.763 -0.202,14.562 6.281,15.262 -0.777,3.831 0.83,5.269 2.377,6.772 H 399.392 Z"
           style="fill:#ffffff;fill-opacity:1;fill-rule:nonzero;stroke:none"
           id="path837"
           inkscape:connector-curvature="0" /><path
           d="m 521.746,220.873 c -1.041,1.012 -2.628,1.928 -4.219,2.985 h -1.637 c 1.382,-1.825 4.403,-4.649 5.856,-2.985"
           style="fill:#ffffff;fill-opacity:1;fill-rule:nonzero;stroke:none"
           id="path839"
           inkscape:connector-curvature="0" /><path
           d="m 399.392,250.517 h 117.393 c -2.324,1.872 -4.608,3.784 -6.697,5.89 4.921,1.335 3.931,-3.243 7.178,-3.585 2.39,-0.103 -2.479,3.517 -0.897,3.585 1.14,0.052 3.078,-6.361 6.271,-3.585 -4.332,2.537 -6.239,7.512 -9.86,10.764 1.048,1.031 3.172,1.024 5.379,0.901 -0.805,-2.704 2.116,-1.502 3.587,-2.699 2.333,-1.87 4.131,-6.552 6.29,-5.381 -3.667,3.274 -7.761,8.111 -11.667,9.867 -0.89,0.411 -3.09,3.067 -3.589,3.599 -1.045,1.093 -1.227,2.937 -2.692,3.59 3.196,0.458 5.459,-4.645 7.178,-2.693 -0.771,1.105 -5.784,2.481 -3.59,3.589 1.955,-1.076 5.218,-5.497 7.174,-3.589 -1.74,-0.105 -2.664,1.918 -3.584,2.693 -1.149,0.953 -3.759,1.486 -3.59,3.59 0.12,0.057 0.232,0.086 0.344,0.122 H 399.392 Z"
           style="fill:#ffffff;fill-opacity:1;fill-rule:nonzero;stroke:none"
           id="path841"
           inkscape:connector-curvature="0" /><path
           d="m 527.339,382.706 c -3.887,-0.426 -7.733,-0.734 -10.896,0 z M 399.392,357.15 H 525.13 c -0.36,0.232 -0.627,0.475 -0.686,0.673 1.338,0.162 3.308,-0.321 3.592,0.896 -2.823,-0.428 -3.667,1.115 -4.487,2.694 1.466,-0.656 3.897,1.778 1.79,1.783 0.391,-1.478 -3.347,0.087 -3.593,0.908 2.339,0.385 6.902,-0.121 9.874,1.792 5.489,1.65 -5.479,-0.168 -5.386,1.792 2.91,-0.51 4.18,0.616 6.283,0.9 6.05,-0.295 2.004,1.597 -1.792,0.902 -4.046,-1.364 -13.946,-1.591 -17.945,0 5.476,1.677 14.225,0.786 17.945,1.786 -7.553,1.487 4.248,0.729 3.584,3.596 -2.145,2.776 -4.755,-0.902 -7.176,-0.896 -3.074,0.004 -5.811,2.092 -8.974,2.688 4.935,0.159 10.446,-0.275 12.566,2.698 -0.177,2.808 -5.238,0.747 -6.281,2.688 5.103,0.585 12.543,-1.181 16.148,0.907 -1.912,0.496 -4.156,0.538 -6.543,0.397 0.085,0.065 0.181,0.117 0.26,0.19 h -2.689 c 0.102,0.098 0.173,0.18 0.25,0.265 H 399.392 Z"
           style="fill:#ffffff;fill-opacity:1;fill-rule:nonzero;stroke:none"
           id="path843"
           inkscape:connector-curvature="0" /><path
           d="m 519.056,276.151 c -0.712,0.289 -1.366,0.64 -1.983,1.024 h -1.692 c 1.709,-0.613 2.463,-3.291 3.675,-1.024"
           style="fill:#ffffff;fill-opacity:1;fill-rule:nonzero;stroke:none"
           id="path845"
           inkscape:connector-curvature="0" /><path
           d="m 308.199,143.884 h 0.035 z"
           style="fill:#ffffff;fill-opacity:1;fill-rule:nonzero;stroke:none"
           id="path847"
           inkscape:connector-curvature="0" /><path
           d="m 399.392,410.466 h 121.083 c -4.438,0.339 -8.81,1.568 -13.086,1.794 -2.751,0.144 -5.936,-1.251 -8.972,-0.894 -1.753,0.199 -3.853,0.805 -5.386,1.795 -1.779,2.067 0.227,0.987 0.899,2.689 -4.05,-0.173 -10.783,-2.354 -14.358,0 4.653,1.464 9.283,-1.085 13.459,1.792 -2.835,1.914 -8.444,-3.016 -4.491,1.796 -3.013,0.56 -8.331,-1.151 -9.869,0.902 1.497,0.102 8.132,-0.494 5.384,0.89 -3.927,0.56 -7.176,1.798 -10.771,2.699 3.564,0.622 9.945,-1.564 10.771,1.787 -5.223,0.165 -9.917,-1.674 -14.361,0 2.72,1.186 7.694,0.094 9.878,1.803 -1.593,0.201 -4.496,-0.912 -3.59,1.787 2.999,-0.214 5.654,-1.923 7.179,0.901 -3.054,2.184 -6.325,-1.108 -8.975,1.792 2.854,1.34 8.37,0.011 10.764,1.797 -2.817,-1.026 -2.176,1.419 -3.586,1.798 -1.487,-1.571 -3.848,0.627 -6.283,0.896 -1.098,0.121 -1.267,-0.98 -2.687,-0.896 -3.47,0.205 -6.692,1.08 -9.012,1.531 h -63.99 z"
           style="fill:#ffffff;fill-opacity:1;fill-rule:nonzero;stroke:none"
           id="path849"
           inkscape:connector-curvature="0" /><path
           d="m 469.694,156.259 c 2.657,2.723 1.738,9.036 4.492,11.656 2.693,-7.258 -2.859,-15.385 -1.792,-20.633 2.044,3.636 1.402,7.578 2.687,11.657 0.653,2.071 2.772,4.101 3.59,6.293 0.978,2.613 0.202,3.753 0.872,5.308 h -7.858 c 0.246,-5.846 -3.086,-10.995 -1.991,-14.281"
           style="fill:#ffffff;fill-opacity:1;fill-rule:nonzero;stroke:none"
           id="path851"
           inkscape:connector-curvature="0" /><path
           d="m 206.752,166.123 c -3.759,-0.181 -13.555,0.796 -7.184,-1.798 -2.909,-0.504 -4.516,0.275 -5.389,1.798 0.084,-0.284 -2.009,-2.793 -3.587,-1.798 -0.567,0.369 1.678,1.84 0,1.798 -0.467,-0.011 -1.052,-1.839 -2.691,-1.798 -3.215,0.103 -6.225,3.59 -9.872,1.798 1.061,-0.131 2.55,0.159 2.694,-0.891 -13.535,1.008 -28.013,4.217 -39.492,4.486 1.304,0.146 3.208,-0.285 3.558,0.822 h -6.897 c 0.823,-0.264 1.657,-0.519 2.443,-0.822 -1.594,-0.207 -4.49,0.906 -3.594,-1.803 2.371,-1.393 14.668,-3.538 14.365,-0.891 -1.831,-0.768 -4.953,1.414 -2.696,1.792 3.466,-2.471 7.6,-1.758 11.667,-2.693 0.264,-0.058 1.371,-1.709 1.802,-1.798 1.584,-0.31 3.629,0.502 5.377,0 1.223,-0.336 2.591,-2.285 3.595,-2.682 2.951,-1.192 5.279,-0.353 8.074,-0.894 2.182,1.205 0.559,1.784 1.798,2.681 2.259,0.337 3.973,-1.446 6.28,-1.787 3.315,-0.507 7.675,0.923 12.565,0.89 6.153,-0.031 13.859,-1.274 19.74,0 0.488,0.11 -0.155,1.709 0.903,1.792 4.609,0.408 12.347,-1.29 18.838,-0.895 6.884,0.438 10.262,1.17 13.462,-2.681 -13.472,-2.769 -29.531,-2.717 -43.967,-3.592 -4.331,-0.267 -8.148,-2.006 -11.667,-0.898 0.69,0.198 1.769,0.018 1.79,0.898 -3.851,-2.319 -7.325,0.108 -9.87,-2.701 15.152,-0.412 32.418,1.384 50.252,2.701 3.428,0.248 9.143,0.532 13.462,0.891 9.818,0.823 23.985,5.157 32.313,2.701 -0.69,0.198 -1.876,-0.886 -1.792,-0.909 1.86,-0.362 3.189,1.667 4.485,0 -2.294,-0.4 -4.133,-1.259 -5.387,-2.683 3.195,-0.762 5.376,2.599 6.283,-0.898 -4.331,-0.159 -6.126,-2.853 -8.976,-4.486 4.253,0.456 3.584,1.126 1.797,-1.802 2.553,0.157 3.741,1.642 6.283,1.802 0.005,-0.904 -0.726,-1.076 -0.901,-1.802 3.019,-0.097 5.538,2.607 7.178,1.802 0.275,-0.138 -0.937,-1.802 -0.893,-1.802 2.469,-0.123 3.049,0.611 6.284,0.898 -0.054,-1.149 -1.148,-1.24 -0.902,-2.685 3.195,-1.398 0.553,3.045 2.696,2.685 1.86,-0.535 5.896,1.109 6.285,-0.898 -2.543,0.747 -2.332,-1.268 -4.491,-0.897 -1.11,-2.899 2.905,-0.686 1.797,-3.59 -1.218,0.549 -3.105,-1.042 -2.494,-1.6 h 0.763 c 0.579,1.217 5.575,1.217 6.147,0 h 1.239 c 0.608,0.433 1.276,0.806 2.421,0.705 -0.054,-0.212 0.017,-0.46 0.161,-0.705 h 1.998 c -3.356,1.33 5.964,1.595 8.604,1.6 -0.324,-0.668 -0.503,-1.174 -0.596,-1.6 h 10.581 c 4.025,0.964 5.812,4.164 11.559,3.398 -0.131,-1.065 -1.601,-2.035 0,-2.693 2.536,3.203 6.89,4.574 8.971,6.28 2.517,2.056 4.812,3.919 7.18,5.39 2.211,1.363 3.072,2.375 4.489,3.581 0.991,0.86 2.618,0.928 3.59,1.803 2.291,2.035 4.875,5.703 6.289,7.173 0.751,0.787 1.592,1.262 2.33,1.724 H 185.766 c 7.17,-0.649 15.045,-1.761 20.986,-4.417"
           style="fill:#ffffff;fill-opacity:1;fill-rule:nonzero;stroke:none"
           id="path853"
           inkscape:connector-curvature="0" /><path
           d="m 412.261,161.643 c 0.285,-1.332 1.604,-2.093 1.798,-3.595 0.35,-2.715 -1.011,-6.382 0.898,-8.974 -0.16,2.483 1.38,3.088 2.686,1.795 -0.747,-1.042 -1.178,-2.405 -0.891,-4.483 3.024,0.855 2.958,-0.933 2.489,-2.502 h 8.19 c 0.327,0.237 0.656,0.472 0.985,0.705 -1.813,0.732 0.564,4.733 0.896,6.28 -3.373,0.688 -0.617,-4.763 -4.491,-3.587 0.116,1.491 -2.904,5.708 0.897,5.387 -0.12,-1.066 -1.594,-2.035 0,-2.698 3.837,2.364 4.237,6.042 4.49,8.077 2.776,-2.477 3.456,-7.615 2.688,-9.864 -0.031,-0.114 -1.782,0.084 -1.792,0 -0.084,-1.46 0.446,-2.892 0.735,-4.3 h 5.08 c -0.033,0.97 0.467,3.021 1.375,2.502 0.526,-1.445 2.446,-1.499 3.401,-2.502 h 6.876 c 0.92,3.966 3.406,6.366 7.675,6.985 0.98,2.606 1.105,6.069 4.477,6.288 -0.146,-2.311 -3.803,-5.684 -1.792,-7.186 1.507,3.181 3.216,6.264 4.491,8.968 0.466,1.008 1.604,1.677 1.792,2.704 0.031,0.185 -1.44,0.658 -0.896,1.787 0.186,0.396 1.424,1.227 1.792,1.802 1.198,1.85 1.963,3.801 3.15,5.308 h -57.019 c -0.353,-3.135 -0.55,-6.254 0.02,-8.897"
           style="fill:#ffffff;fill-opacity:1;fill-rule:nonzero;stroke:none"
           id="path855"
           inkscape:connector-curvature="0" /><path
           d="m 79.326,223.595 c -0.003,-0.01 -0.009,-0.021 -0.012,-0.029 0.929,0.042 1.61,0.15 2.142,0.292 h -4.102 c 1.157,-0.362 1.696,-0.387 1.972,-0.263"
           style="fill:#ffffff;fill-opacity:1;fill-rule:nonzero;stroke:none"
           id="path857"
           inkscape:connector-curvature="0" /><path
           d="m 528.933,411.366 c -1.454,-0.498 -2.899,-0.773 -4.341,-0.9 h 4.166 c 0.092,0.251 0.158,0.539 0.175,0.9"
           style="fill:#ffffff;fill-opacity:1;fill-rule:nonzero;stroke:none"
           id="path859"
           inkscape:connector-curvature="0" /><path
           d="m 91.873,222.665 c -1.301,-0.485 -4.632,1.053 -4.486,-0.901 3.428,-1.551 5.905,1.534 6.283,-2.688 -2.918,-0.073 -5.524,-0.46 -7.179,-1.792 3.342,-1.509 5.641,1.39 8.971,1.792 -0.073,-0.006 2.284,-0.998 3.59,-0.896 5.666,0.416 9.386,0.99 14.36,-1.792 -4.031,-2.015 -7.957,3.341 -9.87,-1.798 3.592,1.171 5.905,-1.549 8.081,-1.797 1.854,-0.201 3.962,1.776 5.386,0 -7.317,-3.325 -10.846,3.263 -18.848,0 -2.493,1.343 1.554,3.667 -0.901,4.491 -1.383,-1.884 -5.329,-0.327 -1.798,-2.694 -2.782,-0.102 -2.56,2.819 -6.282,1.798 -1.065,-3.765 3.785,-1.609 4.49,-3.595 -3.621,0.943 -1.123,-1.956 -2.693,-2.689 -2.54,-1.201 -5.619,1.43 -9.871,-0.901 5.128,-0.42 5.25,-0.284 8.97,-1.792 -0.436,2.958 5.18,3.76 5.386,0.896 -1.055,-0.135 -2.539,0.155 -2.693,-0.896 1.703,-1.694 5.232,3.159 7.184,-0.896 -1.696,-0.201 -1.983,1.006 -3.59,0.896 -0.744,-3.272 3.653,-1.907 4.486,-2.698 0.557,-0.518 -1.656,-1.761 0,-1.792 4.274,4.159 5.423,-2.477 9.872,0 -0.423,-3.715 4.201,-2.382 6.288,-3.595 0.094,1.098 0.256,2.129 1.792,1.798 1.959,-0.201 4.828,-4.052 6.281,-1.798 -1.544,-0.041 -2.31,0.695 -2.691,1.798 6.092,1.248 9.668,0.258 13.464,-2.683 -3.025,-0.575 -8.339,1.144 -9.877,-0.896 0.545,-0.157 1.086,-0.262 1.624,-0.345 h 8.143 0.103 260.904 c 0.519,1.206 0.924,2.482 1.154,3.924 5.434,2.046 9.656,5.303 16.153,6.287 0.888,-3.383 0.879,-6.786 0.512,-10.211 h 73.62 c 0.109,1.703 -0.046,3.022 0.349,4.825 1.424,6.362 4.738,11.821 5.39,17.953 2.549,0.751 5.441,1.695 6.279,0.895 0.737,-0.703 0.824,-0.269 1.798,-0.895 0.797,-0.513 2.247,-2.441 2.693,-2.694 1.538,-0.886 3.731,-0.802 5.388,-1.798 1.417,-0.853 2.522,-3.098 3.588,-3.59 2.388,-1.09 5.65,-0.87 8.07,-1.792 4.352,-1.653 6.946,-4.775 10.771,-3.589 -2.538,1.346 -4.145,3.627 -8.073,3.589 -3.122,3.3 -6.104,6.809 -9.872,9.874 -0.817,0.652 -3.294,0.845 -4.484,1.786 -0.688,0.544 -1.345,1.278 -1.844,2.094 H 87.301 c 1.436,-0.326 4.053,-0.096 4.572,-1.193"
           style="fill:#ffffff;fill-opacity:1;fill-rule:nonzero;stroke:none"
           id="path861"
           inkscape:connector-curvature="0" /><path
           d="m 399.392,457.129 c 5.082,-0.194 10.185,-0.409 13.765,0.907 -1.57,0.816 -4.472,0.298 -5.379,1.785 5.633,3.047 16.836,0.512 23.326,2.693 -3.05,1.224 -6.62,0.011 -8.075,0 -1.844,-0.01 -4.733,0.622 -6.277,0.896 -0.787,0.141 -1.57,0.246 -2.356,0.373 h -15.004 z"
           style="fill:#dc241f;fill-opacity:1;fill-rule:nonzero;stroke:none"
           id="path863"
           inkscape:connector-curvature="0" /><path
           d="m 463.382,437.125 c -0.663,0.128 -1.264,0.229 -1.763,0.261 0.677,2.029 5.029,0.352 7.179,0.896 1.26,-0.07 3.437,0.199 1.798,0.901 -1.492,-0.005 -2.994,0 -4.486,0 -0.907,0.706 -2.247,0.559 -3.595,2.699 4.18,0.969 7.412,-1.567 8.976,0 0.147,0.131 -7.283,1.797 -8.069,0.896 -1.154,0.047 -1.243,1.143 -2.699,0.896 -2.34,-2.198 -1.98,0.182 -2.688,0.896 -1.902,1.896 -9.287,-1.973 -8.981,1.796 5.34,0.043 11.5,-0.739 13.461,2.694 1.835,-0.817 5.891,-1.802 7.179,0.896 -2.963,-1.27 -2.236,1.829 -3.584,1.793 0.327,0.009 -1.16,-3.433 -3.595,-1.793 0.748,2.877 0.771,1.856 -0.896,3.588 9.499,0.207 20.061,-0.489 26.027,0.892 -6.831,3.11 -13.958,1.26 -21.536,0.9 -21.975,-1.021 -45.746,0.137 -66.718,1.308 v -19.519 z"
           style="fill:#dc241f;fill-opacity:1;fill-rule:nonzero;stroke:none"
           id="path865"
           inkscape:connector-curvature="0" /><path
           d="M 399.392,383.809 H 531.87 c 1.763,1.933 -2.266,0.827 -1.145,4.218 1.782,-0.007 1.138,-2.445 3.584,-1.792 0.4,3.389 -4.679,1.293 -5.376,3.59 3.532,-0.249 6.23,0.342 7.178,2.688 -3.108,0.486 -8.516,-1.333 -8.978,1.797 6.787,0.397 11.766,2.594 16.158,5.381 -2.384,-1.065 -4.988,0.17 -8.075,0 -9.324,-0.496 -21.74,-3.056 -25.128,3.59 1.718,0.742 8.915,0.58 7.178,1.802 -5.504,1.281 -10.727,-2.408 -14.363,0 3.673,-1.086 6.558,1.897 9.877,2.694 1.871,0.442 3.4,-0.332 5.379,0 1.32,0.214 3.2,1.518 4.481,1.792 1.883,0.392 5.316,-1.295 6.118,0.897 h -4.166 c -1.377,-0.121 -2.751,-0.104 -4.117,0 H 399.392 Z"
           style="fill:#dc241f;fill-opacity:1;fill-rule:nonzero;stroke:none"
           id="path867"
           inkscape:connector-curvature="0" /><path
           d="m 399.392,330.492 h 119.354 c 0.425,0.411 0.843,0.828 1.208,1.298 -1.544,0.357 -2.299,-1.327 -2.688,0 5.413,2.447 11.931,-1.337 16.147,2.693 -5.87,0.486 -10.215,-0.548 -15.254,-0.896 -1.53,1.798 -1.305,7.278 0.897,8.085 7.531,-0.159 12.149,2.235 17.952,2.689 5.246,0.406 9.93,-0.776 11.669,1.798 -6.609,0.695 -8.811,-2.208 -13.461,0 1.687,0.467 7.302,1.57 5.376,2.688 -1.056,-0.134 -2.033,-1.594 -2.689,0 -0.2,3.234 8.687,2.027 6.284,4.486 -3.818,-0.202 -12.297,-1.832 -18.848,0 3.553,0.02 3.936,2.554 2.697,3.591 0.289,-1.126 -1.78,-0.499 -2.906,0.226 H 399.392 Z"
           style="fill:#dc241f;fill-opacity:1;fill-rule:nonzero;stroke:none"
           id="path869"
           inkscape:connector-curvature="0" /><path
           d="M 399.392,277.175 H 514.02 c 0.517,0.167 0.965,0.144 1.361,0 h 1.692 c -2.144,1.344 -3.764,3.204 -5.193,5.262 2.087,0.294 3.866,0.919 4.489,2.691 -3.732,0.161 -4.936,-1.558 -7.183,0.898 -0.653,1.797 1.724,1.74 1.797,2.694 -0.021,-0.236 -1.713,0.497 -1.797,0.895 -0.343,1.652 1.434,4.091 1.797,6.279 -2.665,-0.887 -2.097,4.806 -1.452,7.938 H 399.392 Z"
           style="fill:#dc241f;fill-opacity:1;fill-rule:nonzero;stroke:none"
           id="path871"
           inkscape:connector-curvature="0" /><path
           d="m 523.363,226.529 c 0.881,-0.588 1.816,-1.121 2.871,-1.534 0.005,0.633 -0.101,1.129 -0.277,1.534 z"
           style="fill:#dc241f;fill-opacity:1;fill-rule:nonzero;stroke:none"
           id="path873"
           inkscape:connector-curvature="0" /><path
           d="m 94.654,250.517 c -2.743,-5.488 -10.05,-5.221 -15.34,-9.362 -0.675,-2.765 2.462,-1.723 1.792,-4.49 -1.467,-0.212 -3.883,-2.043 -5.728,-3.242 -0.192,-0.125 -0.378,-0.246 -0.555,-0.353 -0.312,-0.185 -1.115,-0.608 -1.718,-0.914 2.937,-0.711 5.51,2.297 3.51,-0.878 1.543,0.855 3.118,1.513 4.371,2.145 0.369,0.185 0.714,0.368 1.016,0.554 -0.474,-0.295 -0.643,0.42 0,0.901 1.35,0.996 3.9,2.019 4.489,0.891 -0.047,0.088 -2.803,-1.366 -2.693,-1.792 1.576,-0.81 2.845,2.281 3.48,0.402 -2.945,-0.326 -3.877,-2.662 -6.172,-3.642 3.68,-0.932 7.342,2.77 9.871,0 -1.829,0.772 -5.571,-0.773 -2.694,-1.786 0.011,1.172 2.488,1.139 2.694,0 -2.451,0.651 -1.808,-1.787 -3.59,-1.804 -1.753,2.19 -8.707,0.887 -8.826,-1.334 -0.795,-0.431 -1.471,-0.969 -1.946,-1.709 0.274,-0.095 0.514,-0.174 0.739,-0.246 h 4.102 c 0.405,0.112 0.731,0.24 0.968,0.382 0.15,-0.042 0.309,-0.085 0.479,-0.136 0.347,1.251 0.709,1.749 1.106,1.988 0.638,-0.128 2.274,-0.185 3.378,0.16 -1.567,-1.612 -1.148,-2.152 -0.086,-2.394 h 420.943 c -0.46,0.753 -0.784,1.577 -0.855,2.394 2.203,-0.376 3.417,-1.962 5.031,-2.394 h 1.633 c 0.429,0.108 0.894,0.293 1.415,0.602 0.113,-0.177 0.26,-0.385 0.422,-0.602 h 1.637 c -0.7,0.466 -1.403,0.957 -2.059,1.501 -2.039,1.685 -5.169,3.539 -4.485,5.378 2.3,-1.969 5.742,-5.728 8.62,-6.879 h 1.376 c -2.177,1.002 -0.929,2.494 -1.923,3.289 0.546,-0.43 -2.054,-0.84 -1.79,0.902 5.036,-0.152 -3.121,3.039 0,3.59 1.053,-0.13 2.033,-1.596 2.688,0 -0.945,0.715 -2.481,0.843 -3.2,1.784 h 1.831 c 0.304,-0.452 0.622,-0.881 1.369,-0.883 0.092,0.315 0.131,0.606 0.15,0.883 h 1.538 c -0.544,0.522 -1.11,0.859 -1.675,1.123 -0.047,0.144 -0.099,0.285 -0.164,0.419 h -0.831 c -0.988,0.384 -1.908,0.738 -2.603,1.7 0.304,1.745 -0.148,8.407 -3.589,6.282 1.471,0.654 3.901,-1.78 1.792,-1.792 -2.698,1.138 -3.09,3.601 -1.792,5.388 1.337,-1.952 4.489,-2.093 4.486,-5.388 4.979,1.084 5.45,-2.33 8.073,-3.589 -0.8,4.28 -5.165,5 -7.18,8.072 1.192,2.2 3.342,-0.984 3.587,0.905 -1.644,1.334 -3.311,2.645 -4.961,3.974 H 399.392 Z"
           style="fill:#dc241f;fill-opacity:1;fill-rule:nonzero;stroke:none"
           id="path875"
           inkscape:connector-curvature="0" /><path
           d="m 78.445,226.529 h -6.126 c -0.374,-0.248 -0.734,-0.47 -1.079,-0.632 2.135,-0.403 4.259,-0.23 7.205,0.632"
           style="fill:#dc241f;fill-opacity:1;fill-rule:nonzero;stroke:none"
           id="path877"
           inkscape:connector-curvature="0" /><path
           d="m 73.105,232.156 c -0.025,0.006 -0.051,0.01 -0.079,0.019 -1.072,-0.588 -0.643,-0.388 0.079,-0.019"
           style="fill:#dc241f;fill-opacity:1;fill-rule:nonzero;stroke:none"
           id="path879"
           inkscape:connector-curvature="0" /><path
           d="m 412.261,181.382 c -0.078,-1.134 0.987,-1.233 0.896,-2.689 -0.152,-2.515 -0.596,-5.342 -0.916,-8.153 h 57.019 c 0.6,0.763 1.299,1.419 2.231,1.871 0.115,-0.63 0.169,-1.254 0.194,-1.871 h 7.858 c 0.012,0.026 0.017,0.052 0.029,0.078 1.064,2.3 3.151,5.361 3.589,7.174 0.332,1.411 -0.355,3.088 0,4.485 0.089,0.359 1.68,2.199 1.789,2.698 0.585,2.573 0.092,5.493 0.903,8.074 0.085,0.254 1.687,0.532 1.793,0.895 0.352,1.297 0.487,2.33 0.545,3.256 h -73.62 c -0.557,-5.235 -1.957,-10.515 -2.31,-15.818"
           style="fill:#dc241f;fill-opacity:1;fill-rule:nonzero;stroke:none"
           id="path881"
           inkscape:connector-curvature="0" /><path
           d="m 144.826,170.618 c -7.686,-0.501 -13.483,5.651 -19.744,3.59 4.14,-1.353 8.657,-2.33 12.81,-3.668 h 6.897 c 0.009,0.029 0.029,0.048 0.037,0.078"
           style="fill:#dc241f;fill-opacity:1;fill-rule:nonzero;stroke:none"
           id="path883"
           inkscape:connector-curvature="0" /><path
           d="m 135.745,197.2 h -8.143 c 2.891,-0.452 5.633,0 8.143,0"
           style="fill:#dc241f;fill-opacity:1;fill-rule:nonzero;stroke:none"
           id="path885"
           inkscape:connector-curvature="0" /><path
           d="m 142.127,194.846 c -1.591,-0.204 -4.493,0.901 -3.584,-1.797 17.55,-3.383 33.577,-8.305 52.945,-9.87 0.128,-1.191 -3.647,-2.703 -0.896,-3.584 0.528,4.708 17.315,2.45 17.952,1.787 0.549,-0.57 -1.655,-1.736 0,-1.787 0.435,1.057 0.949,2.027 1.798,2.682 3.767,-0.87 8.848,0 11.664,0 0.949,0 2.344,-0.984 2.688,-0.895 0.283,0.078 0.591,3.261 2.696,1.797 -0.337,-2.915 -3.15,-1.824 -4.488,-2.688 -0.739,-0.48 0.285,-1.492 -0.896,-1.798 0.337,0.084 -0.464,1.996 -1.795,1.798 -1.167,-0.185 -0.841,-1.455 -1.794,-1.798 -0.259,1.844 -2.398,1.787 -3.589,2.689 -0.358,-1.544 1.326,-2.305 0,-2.689 -6.03,0.281 -9.599,0.861 -15.26,0.902 -1.565,0.006 -2.897,-1.093 -4.488,-0.902 -1.178,0.136 -1.22,0.949 -2.69,0.902 -1.622,-0.063 -2.064,-1.076 -3.593,-0.902 -0.201,0.022 -2.319,1.702 -2.688,1.798 -4.866,1.176 -9.715,0.126 -14.362,0.891 -1.393,0.232 -2.341,1.471 -3.585,1.797 -1.405,0.369 -3.077,-0.289 -4.491,0 -1.559,0.316 -2.876,2.213 -4.49,2.693 -1.095,0.327 -2.466,-0.248 -3.584,0 -0.342,0.078 -2.223,1.649 -2.699,1.79 -3.271,0.956 -5.12,0.243 -8.072,0.901 -1.019,0.222 -2.004,1.708 -2.699,1.791 -1.635,0.218 -2.024,-0.84 -3.584,-0.892 -1.006,-0.039 -1.393,1.264 -1.802,0 4.226,-1.061 1.698,-2.605 0,-4.487 6.227,0.785 7.672,-3.664 12.565,-1.796 -1.74,-2.999 0.327,-0.486 2.696,-0.902 1.181,-0.2 1.824,-1.546 2.699,-1.786 1.35,-0.387 3.163,0.473 4.48,0 0.243,-0.096 0.601,-1.612 0.896,-1.798 2.963,-1.797 6.653,0.075 8.982,0 1.745,-0.067 4.733,-1.391 7.173,-1.797 6.894,-1.112 12.338,-1.376 17.947,-2.688 -5.018,0.794 -3.344,-0.911 -4.486,-2.693 -3.474,1.338 -12.719,1.601 -16.144,0 3.315,-0.324 7.623,-0.556 12.217,-0.975 h 192.036 c 0.48,0.304 0.916,0.601 1.25,0.975 1.066,1.18 1.594,3.125 2.694,4.485 1.139,1.398 2.536,2.207 3.589,3.595 3.035,3.963 5.957,8.127 8.08,11.661 1.257,2.088 2.461,3.917 3.337,5.944 H 135.848 c 2.313,-0.011 4.427,-0.431 6.279,-2.354"
           style="fill:#dc241f;fill-opacity:1;fill-rule:nonzero;stroke:none"
           id="path887"
           inkscape:connector-curvature="0" /><path
           d="m 441.878,143.692 c -0.538,-1.344 -4.512,-3.748 -2.691,-4.485 1.34,1.054 2.532,2.25 3.587,3.59 1.026,-2.822 -1.408,-2.187 -1.793,-3.59 2.73,-2.816 3.873,5.176 7.179,1.788 0.049,1.052 0.203,1.995 0.411,2.889 h -6.876 c 0.062,-0.066 0.131,-0.117 0.183,-0.192"
           style="fill:#dc241f;fill-opacity:1;fill-rule:nonzero;stroke:none"
           id="path889"
           inkscape:connector-curvature="0" /><path
           d="m 432,141.9 c -0.119,-1.274 -1.497,-1.885 -1.792,-3.589 -0.243,-1.46 0.19,-3.03 0,-4.49 3.522,1.233 2.644,5.614 4.491,8.079 0.57,0.753 1.863,0.8 2.521,1.566 -0.193,-0.189 -0.287,0.031 -0.301,0.418 h -5.08 c 0.138,-0.666 0.224,-1.327 0.161,-1.984"
           style="fill:#dc241f;fill-opacity:1;fill-rule:nonzero;stroke:none"
           id="path891"
           inkscape:connector-curvature="0" /><path
           d="m 325.211,140.995 c -1.507,-1.239 -5.955,-4.144 -4.49,-5.382 2.729,3.704 11.483,4.631 11.667,8.079 0.352,0.048 0.684,0.114 1.006,0.192 h -10.581 c -0.342,-1.571 0.725,-1.826 2.398,-2.889"
           style="fill:#dc241f;fill-opacity:1;fill-rule:nonzero;stroke:none"
           id="path893"
           inkscape:connector-curvature="0" /><path
           d="m 302.773,143.692 c 0.005,0.069 0.037,0.128 0.066,0.192 h -0.763 c 0.124,-0.115 0.342,-0.189 0.697,-0.192"
           style="fill:#dc241f;fill-opacity:1;fill-rule:nonzero;stroke:none"
           id="path895"
           inkscape:connector-curvature="0" /><path
           d="m 418.544,141.9 c -0.017,0.042 1.625,-1.506 1.798,-1.797 2.857,-4.935 -1.664,-10.872 -0.907,-17.056 5.486,-0.694 3.226,6.359 4.491,9.873 0.905,0.984 3.858,4.407 1.792,5.391 0.278,-1.091 -2.586,-3.1 -2.689,-0.901 0.375,3.242 2.305,4.945 4.402,6.474 h -8.19 c -0.287,-0.962 -0.723,-1.839 -0.697,-1.984"
           style="fill:#dc241f;fill-opacity:1;fill-rule:nonzero;stroke:none"
           id="path897"
           inkscape:connector-curvature="0" /><path
           d="m 315.339,143.692 c -0.209,0.067 -0.38,0.128 -0.534,0.192 h -1.998 c 0.588,-1.006 2.452,-1.957 2.532,-0.192"
           style="fill:#dc241f;fill-opacity:1;fill-rule:nonzero;stroke:none"
           id="path899"
           inkscape:connector-curvature="0" /><path
           d="m 309.051,143.692 c -0.301,0.145 -0.572,0.197 -0.817,0.192 h -0.035 c -1.744,-0.095 -2.056,-3.406 -0.935,-1.087 1.48,-0.136 2.17,0.524 2.961,1.087 h -1.239 c 0.03,-0.064 0.061,-0.123 0.065,-0.192"
           style="fill:#dc241f;fill-opacity:1;fill-rule:nonzero;stroke:none"
           id="path901"
           inkscape:connector-curvature="0" /><path
           d="m 319.83,463.783 c -2.673,-0.717 -5.186,-1.845 -8.075,-2.159 -8.247,-0.902 -16.975,0.19 -25.139,-0.907 -1.915,-0.247 -3.462,-1.454 -5.382,-1.792 -3.61,-0.627 -8.064,0.17 -9.877,0 -2.941,-0.262 -6.155,-1.554 -8.969,-1.792 -5.018,-0.426 -10.352,0.465 -15.253,0 -4.123,-0.395 -8.96,-2.134 -13.472,-2.697 -11.236,-1.392 -22.566,-5.144 -31.401,-4.48 -0.157,-4.981 -7.516,0.8 -7.182,-0.896 0.552,-0.053 1.068,-0.143 0.899,-0.901 -0.238,-1.265 -1.97,-1.024 -2.693,-1.793 -4.222,-0.521 -6.335,-0.966 -8.974,-1.796 -2.847,-0.896 -6.526,-2.905 -8.08,-3.59 -2.388,-1.054 -5.423,-1.708 -8.07,-2.698 -2.966,-1.107 -5.914,-2.452 -8.727,-3.686 6.399,1.65 13.111,2.529 20.026,2.529 17.391,0 33.473,-5.569 46.594,-14.996 11.96,-5.314 22.177,-13.824 29.57,-24.455 l 3.812,26.122 5.931,-40.656 22.985,34.055 -12.296,-39.203 35.486,20.711 -28.088,-29.987 40.955,3.264 -38.315,-14.83 38.315,-14.83 -40.955,3.263 28.088,-29.986 -35.486,20.711 12.296,-39.205 -22.985,34.057 -5.931,-40.656 -3.812,26.122 c -7.393,-10.634 -17.61,-19.143 -29.57,-24.456 -13.123,-9.426 -29.203,-14.995 -46.594,-14.995 -44.17,0 -79.975,35.805 -79.975,79.975 0,32.574 19.485,60.579 47.427,73.049 -0.812,0.161 -1.541,0.676 -2.087,1.8 0.554,2.741 4.827,1.76 5.386,4.491 -2.722,-0.217 -6.546,-4.953 -8.085,-0.896 0.622,1.776 5.356,-0.559 4.491,2.688 -3.532,1.021 -6.236,-2.704 -7.179,0.901 0.285,2.108 2.777,2.008 3.595,3.595 -4.755,-1.065 -4.06,-2.221 -6.293,0.896 -2.224,3.108 -4.036,8.389 -7.179,6.282 1.982,-0.77 3.662,-6.452 1.802,-8.074 -1.844,3.841 -3.236,8.122 -7.178,9.867 -0.275,-1.762 1.207,-1.782 1.792,-2.689 0.728,-1.139 1.186,-3.273 1.792,-4.49 1.601,-3.211 6.429,-8.787 4.49,-11.67 -0.399,4.522 -2.952,5.74 -4.49,8.08 -1.986,3.015 -2.388,6.936 -5.379,8.976 2.291,-5.718 3.756,-8.791 6.275,-14.362 -0.152,0.347 0.559,1.043 0.896,0 0.097,-0.28 1.813,-3.446 1.802,-4.491 -0.01,-0.622 -1.047,-1.418 -0.906,-1.797 0.906,-2.32 5.998,-3.548 2.698,-6.278 -2.024,0.374 0.139,4.919 -2.698,4.491 -0.792,-2.678 2.805,-5.47 0.906,-6.289 -1.823,2.974 -2.299,7.281 -5.386,8.977 -1.234,-2.046 2.314,-3.378 0,-3.59 -2.067,3.801 -3.404,8.511 -5.382,12.566 -0.773,1.581 -1.238,3.505 -1.795,4.491 -2.941,5.143 0.779,-5.356 -0.904,-6.288 1.294,-1.983 2.19,1.127 2.699,-0.896 -0.266,-2.419 3.749,-5.129 0.896,-7.184 0.055,1.941 -1.058,7.215 -2.691,4.49 2.866,-0.674 -0.94,-6.635 0.894,-6.277 0,0.496 0.723,1.019 0.901,0 -0.151,-2.673 2.077,-6.014 0.896,-9.877 -1.129,3.8 -2.714,9.409 -5.384,8.975 -0.611,2.383 -1.419,4.575 -2.696,6.283 -3.088,-2.586 2.879,-6.755 0,-8.971 0.517,3.093 -2.96,5.356 -4.483,8.07 -0.917,1.651 -1.039,4.036 -1.797,5.387 -0.57,1.021 -2.215,1.87 -2.694,2.698 0.426,-0.744 0.996,3.294 -0.896,0.896 2.565,-1.043 -1.45,-1.043 -1.792,0 -0.807,-2.978 4.98,-3.895 2.688,-5.386 0.063,2.208 -2.092,1.376 -3.589,2.688 -2.563,2.26 -4.575,7.345 -7.179,6.288 3.046,-3.532 6.957,-6.205 8.08,-11.67 -1.88,0.253 -2.04,2.873 -2.698,3.59 -1.652,1.823 -1.492,1.054 -3.59,1.792 -0.084,-3.968 4.901,-2.874 4.491,-7.179 0.269,-2.067 -2.594,-0.99 -2.693,-2.688 1.144,-1.312 4.046,-5.439 2.693,-6.283 -2.474,1.714 -5.355,3.031 -6.283,6.283 -5.038,0.159 3.122,-3.025 0,-3.595 -0.01,0.907 -1.575,1.134 -1.797,0 2.704,-2.694 8.153,-7.378 6.288,-11.659 -0.591,3.007 -3.435,3.743 -4.491,6.277 0.591,-6.002 5.212,-12.711 3.59,-17.949 -1.181,3.521 -1.787,9.624 -4.491,8.981 0.248,1.144 0.901,1.239 0.901,2.691 0,5.133 -1.223,-2.058 -0.901,-1.795 -0.674,-0.564 -4.347,3.613 -4.486,2.686 0.116,-3.208 5.03,-6.285 1.793,-9.869 0.179,2.57 0.117,4.89 -2.689,4.49 -1.101,-2.171 2.129,-1.878 1.793,-3.59 -0.058,-0.311 -2.171,-0.935 -1.793,-1.802 0.238,-0.528 3.289,-0.253 2.689,-1.792 -1.86,-0.502 -1.897,-1.403 -0.896,-2.694 -1.09,0.285 -3.088,-2.594 -0.897,-2.693 0.202,0.7 0.022,1.777 0.897,1.797 0.517,-2.905 -0.269,-4.516 -1.793,-5.386 1.095,-2.754 1.91,-6.385 2.516,-9.807 h 1.069 c -0.019,-1.604 -1.08,-4.515 -0.896,-6.042 0.316,-2.477 1.93,-4.755 1.797,-7.174 -0.053,-1.084 -1.881,-0.933 -1.797,-1.802 0.011,-0.069 1.656,0.073 1.797,0 1.957,-0.876 -0.88,-2.077 -0.896,-1.792 0.112,-1.809 1.598,-3.815 1.792,-6.278 0.099,-1.22 -1.071,-3.078 -0.896,-4.483 0.031,-0.243 1.648,-1.072 1.797,-1.802 -0.01,0.046 -1.175,-1.435 -0.901,-2.688 1.429,-6.416 2.335,-15.112 1.797,-23.34 -1.698,0.104 -0.627,2.967 -2.693,2.693 -0.016,-4.031 3.325,-6.508 0,-8.977 2.989,0.625 1.44,-1.849 0.896,-2.685 5.392,-0.413 2.051,-2.205 1.797,-5.387 3.428,-1.951 2.817,0.826 4.486,2.698 0.616,-5.793 -0.586,-10.373 2.698,-10.778 -3.684,-2.579 -0.332,-8.819 0,-13.451 0.047,-0.834 -0.896,-1.664 -0.901,-1.803 -0.052,-2.155 2.602,-5.433 0,-6.279 -0.911,3.677 -1.575,7.761 -1.797,9.869 -0.455,4.355 0.763,10.99 -3.59,11.664 0.601,-10.468 2.571,-24.346 1.798,-33.204 0.047,1.681 -0.69,1.902 -1.798,0.902 0.053,1.15 1.15,1.239 0.901,2.694 -2.45,0.078 -1.812,-1.503 -3.594,0 1.713,-4.206 0.429,-8.185 0.901,-12.572 0.337,-3.166 2.341,-7.298 1.792,-9.867 -0.187,-0.875 -0.469,-1.627 -0.808,-2.305 h 304.738 v 26.658 26.657 26.66 26.658 26.659 26.657 26.659 19.519 c -2.949,0.165 -5.844,0.33 -8.669,0.489 2.669,0.219 5.666,0.111 8.669,-0.004 v 6.654 z"
           style="fill:#0035ad;fill-opacity:1;fill-rule:nonzero;stroke:none"
           id="path903"
           inkscape:connector-curvature="0" /><path
           d="m 99.486,357.15 c 0,-44.17 35.805,-79.975 79.975,-79.975 17.391,0 33.471,5.569 46.594,14.995 -8.813,-3.916 -18.559,-6.107 -28.825,-6.107 -39.26,0 -71.085,31.827 -71.085,71.087 0,39.261 31.825,71.087 71.085,71.087 10.266,0 20.014,-2.193 28.825,-6.108 -13.121,9.427 -29.203,14.996 -46.594,14.996 -6.915,0 -13.627,-0.879 -20.026,-2.529 -2.294,-1.008 -4.5,-1.941 -6.537,-2.597 -1.635,-0.522 -4.052,-2.184 -5.985,-1.8 -27.942,-12.47 -47.427,-40.475 -47.427,-73.049"
           style="fill:#ffd100;fill-opacity:1;fill-rule:nonzero;stroke:none"
           id="path905"
           inkscape:connector-curvature="0" /><path
           d="m 126.145,357.15 c 0,-39.26 31.825,-71.087 71.085,-71.087 10.266,0 20.012,2.191 28.825,6.107 11.96,5.313 22.177,13.822 29.57,24.456 l -2.121,14.534 -22.985,-34.057 12.294,39.205 -35.483,-20.711 28.087,29.986 -40.956,-3.263 38.316,14.83 -38.316,14.83 40.956,-3.264 -28.087,29.987 35.483,-20.711 -12.294,39.203 22.985,-34.055 2.121,14.534 c -7.393,10.631 -17.61,19.141 -29.57,24.455 -8.811,3.915 -18.559,6.108 -28.825,6.108 -39.26,0 -71.085,-31.826 -71.085,-71.087"
           style="fill:#0035ad;fill-opacity:1;fill-rule:nonzero;stroke:none"
           id="path907"
           inkscape:connector-curvature="0" /><path
           d="m 267.048,352.754 0.385,-3.602 -1.672,0.387 -6.324,-59.035 5.931,40.656 22.985,-34.057 -12.296,39.205 35.486,-20.711 -28.088,29.986 40.955,-3.263 -38.315,14.83 z"
           style="fill:#ffd100;fill-opacity:1;fill-rule:nonzero;stroke:none"
           id="path909"
           inkscape:connector-curvature="0" /><path
           d="m 265.761,364.761 1.672,0.386 -0.857,-7.997 0.472,-4.396 19.047,4.396 38.315,14.83 -40.955,-3.264 28.088,29.987 -35.486,-20.711 12.296,39.203 -22.985,-34.055 -5.931,40.656 z"
           style="fill:#ffd100;fill-opacity:1;fill-rule:nonzero;stroke:none"
           id="path911"
           inkscape:connector-curvature="0" /><path
           d="m 265.761,349.539 -32.984,7.611 -38.316,-14.83 40.956,3.263 -28.087,-29.986 35.483,20.711 -12.294,-39.205 22.985,34.057 2.121,-14.534 3.812,-26.122 z"
           style="fill:#ffd100;fill-opacity:1;fill-rule:nonzero;stroke:none"
           id="path913"
           inkscape:connector-curvature="0" /><path
           d="m 267.433,365.147 -1.672,-0.386 0.815,-7.611 z"
           style="fill:#ffd100;fill-opacity:1;fill-rule:nonzero;stroke:none"
           id="path915"
           inkscape:connector-curvature="0" /><path
           d="m 253.504,383.14 -22.985,34.055 12.294,-39.203 -35.483,20.711 28.087,-29.987 -40.956,3.264 38.316,-14.83 32.984,-7.611 1.672,-0.387 -0.385,3.602 -0.472,4.396 -0.815,7.611 -6.324,59.035 -3.812,-26.122 z"
           style="fill:#ffd100;fill-opacity:1;fill-rule:nonzero;stroke:none"
           id="path917"
           inkscape:connector-curvature="0" /></g></g></g></svg>